<?xml version="1.0" encoding="UTF-8"?>
<svg width="220px" height="118px" viewBox="0 0 220 118" version="1.1" xmlns="http://www.w3.org/2000/svg" xmlns:xlink="http://www.w3.org/1999/xlink">
    <title>Group 85</title>
    <defs>
        <polygon id="path-1" points="0.165967033 0.301303844 8.35915385 0.301303844 8.35915385 13.5827338 0.165967033 13.5827338"></polygon>
        <polygon id="path-3" points="0.217292308 0.301226228 10.1522215 0.301226228 10.1522215 13.5827338 0.217292308 13.5827338"></polygon>
        <polygon id="path-5" points="0.337323462 0.0331418705 7.53424269 0.0331418705 7.53424269 13.1946557 0.337323462 13.1946557"></polygon>
        <polygon id="path-7" points="0.132162462 0.0341965298 9.75419077 0.0341965298 9.75419077 13.4591309 0.132162462 13.4591309"></polygon>
        <polygon id="path-9" points="0 0.307120703 41.3421687 0.307120703 41.3421687 74.396018 0 74.396018"></polygon>
        <polygon id="path-11" points="0.231402322 0.307120703 41.1840916 0.307120703 41.1840916 74.3961761 0.231402322 74.3961761"></polygon>
    </defs>
    <g id="Symbols" stroke="none" stroke-width="1" fill="none" fill-rule="evenodd">
        <g id="1---Nav/Primary/Simple" transform="translate(-210.000000, -20.000000)">
            <g id="Group-85" transform="translate(210.000000, 20.000000)">
                <path d="M6.50747583,92.6734005 L6.50747583,90.7000594 C6.50747583,90.0578273 6.40235737,89.5493614 6.19212044,89.1758182 C5.98188351,88.8022751 5.69260401,88.5401395 5.32224477,88.3894116 C4.95351527,88.2386836 4.51307705,88.1631269 4.00622677,88.1631269 C3.78784112,88.1631269 3.64401625,88.1642834 3.5731224,88.1665963 C3.50059881,88.1685238 3.38977624,88.1731497 3.23780264,88.1793176 C3.08419931,88.185871 2.94363392,88.1939664 2.81447673,88.2020617 L2.81447673,95.1710126 C3.40933316,95.1972262 3.80699061,95.2107185 4.00622677,95.2107185 C4.79583757,95.2107185 5.40984349,95.0225976 5.84946684,94.646356 C6.28786788,94.2704999 6.50747583,93.6132335 6.50747583,92.6734005 L6.50747583,92.6734005 Z M8.46153846,92.6734005 C8.46153846,93.3418461 8.36293897,93.9301092 8.16614743,94.4370331 C7.97098562,94.9435715 7.68455818,95.3710837 7.30767996,95.7184134 C6.93120918,96.065743 6.46347275,96.329035 5.90487812,96.507904 C5.34465374,96.6879294 4.71272064,96.7769784 4.00622677,96.7769784 C3.62282958,96.7769784 3.11760905,96.7596312 2.49219493,96.7245513 C1.86596593,96.6898569 1.43978797,96.654777 1.21406847,96.6196971 C0.968792055,96.5803767 0.846153846,96.4408281 0.846153846,96.2002802 L0.846153846,87.1662408 C0.846153846,86.9307043 0.968792055,86.7930831 1.21406847,86.7537628 C1.42226822,86.7144424 1.8077026,86.6770496 2.37403851,86.6419697 C2.93955956,86.6072753 3.48307906,86.5899281 4.00622677,86.5899281 C4.71272064,86.5899281 5.34465374,86.6793625 5.90487812,86.858617 C6.46347275,87.037486 6.93120918,87.300778 7.30767996,87.6484931 C7.68455818,87.9962082 7.97098562,88.421793 8.16614743,88.9267895 C8.36293897,89.4317859 8.46153846,90.0227474 8.46153846,90.7000594 L8.46153846,92.6734005 Z" id="Fill-1" fill="#5AA3D1"></path>
                <path d="M12.6923077,87.2566061 C12.6923077,87.3388573 12.6594154,87.4061904 12.5973312,87.4582021 C12.5344248,87.5114235 12.4661733,87.537631 12.3901099,87.537631 L11.0135681,87.537631 C10.9432608,87.537631 10.8791209,87.5102139 10.8174479,87.4549766 C10.7578306,87.3997393 10.7269941,87.334019 10.7269941,87.2566061 L10.7269941,86.0220321 C10.7269941,85.9534894 10.7578306,85.8893819 10.8174479,85.8301126 C10.8791209,85.7708434 10.9432608,85.7410072 11.0135681,85.7410072 L12.3901099,85.7410072 C12.4661733,85.7410072 12.5344248,85.7696338 12.5973312,85.8272903 C12.6594154,85.8837372 12.6923077,85.9494575 12.6923077,86.0220321 L12.6923077,87.2566061 Z M12.6495477,97.1021528 C12.6495477,97.9206327 12.4731629,98.4951813 12.1179263,98.8270084 C11.763512,99.1584323 11.2314794,99.323741 10.5247066,99.323741 C10.2262092,99.323741 9.91085445,99.294308 9.58028706,99.2354419 C9.39855723,99.2076217 9.30769231,99.1225482 9.30769231,98.9818341 L9.30769231,98.0690073 C9.30769231,97.9230518 9.40801375,97.8496709 9.60865665,97.8496709 L10.2586903,97.8496709 C10.4124617,97.8496709 10.5247066,97.8270921 10.5937804,97.7815314 C10.6632653,97.7355675 10.7089033,97.658961 10.7269941,97.5517119 C10.745496,97.4440597 10.7549525,97.2944754 10.7549525,97.1021528 L10.7549525,88.8746158 C10.7549525,88.7963966 10.7820887,88.7306763 10.839239,88.6758421 C10.8947447,88.6206048 10.9617627,88.593591 11.0415265,88.593591 L12.3625626,88.593591 C12.4419152,88.593591 12.5105779,88.6206048 12.5660836,88.6758421 C12.6220004,88.7306763 12.6495477,88.7963966 12.6495477,88.8746158 L12.6495477,97.1021528 Z" id="Fill-3" fill="#5AA3D1"></path>
                <path d="M20.2209073,95.0233144 L20.2209073,93.3985683 L19.3712666,93.3985683 C18.9838335,93.3985683 18.6781488,93.4395187 18.4518879,93.5214196 C18.2252395,93.6025621 18.071816,93.7261717 17.9916174,93.8918693 C17.9087067,94.0575668 17.8691885,94.266869 17.8691885,94.5205341 L17.8691885,94.5721013 C17.8691885,94.8815045 17.944738,95.0953568 18.0962243,95.2132788 C18.2469358,95.3315801 18.4964427,95.3911098 18.8431953,95.3911098 C19.3050155,95.3911098 19.762574,95.2682586 20.2209073,95.0233144 L20.2209073,95.0233144 Z M22,96.4099413 C22,96.4872921 21.9724923,96.5506136 21.9213511,96.5999057 C21.8674979,96.6495771 21.8047337,96.6742232 21.7299591,96.6742232 L20.5835447,96.6742232 C20.5169062,96.6742232 20.4553043,96.6484396 20.3987391,96.5964932 C20.3410116,96.5453052 20.3127289,96.482742 20.3127289,96.4099413 L20.3127289,96.1972266 C19.6719146,96.5836014 19.0372992,96.7769784 18.4084954,96.7769784 C17.7409482,96.7769784 17.1853691,96.6127975 16.7421457,96.2840566 C16.2985348,95.9553157 16.0769231,95.3846639 16.0769231,94.5721013 L16.0769231,94.5205341 C16.0769231,94.0177539 16.1888912,93.5961162 16.413215,93.2567585 C16.635989,92.9170216 16.9908777,92.6629773 17.4767188,92.4927297 C17.9610101,92.3224821 18.5936884,92.2379271 19.3712666,92.2379271 L20.2209073,92.2379271 L20.2209073,91.657796 C20.2209073,91.2452584 20.1275359,90.9631555 19.9404057,90.8130039 C19.753663,90.6624732 19.4514652,90.5870182 19.0341998,90.5870182 C18.1562764,90.5870182 17.4224782,90.6215228 16.8347422,90.6901526 L16.7684911,90.6901526 C16.6053818,90.6901526 16.5247957,90.615456 16.5247957,90.4649253 L16.5247957,89.6201332 C16.5247957,89.4779442 16.610031,89.3858057 16.7812764,89.3425803 C17.5015145,89.2049414 18.2523598,89.1366906 19.0341998,89.1366906 C19.6765638,89.1366906 20.2166455,89.2288291 20.6563821,89.4138644 C21.0953438,89.5985204 21.4281488,89.8810026 21.6563469,90.2616898 C21.8864821,90.641998 22,91.1072403 22,91.657796 L22,96.4099413 Z" id="Fill-5" fill="#5AA3D1"></path>
                <path d="M30.4615385,89.351937 C30.4615385,89.395677 30.4565142,89.4259879 30.4487846,89.4432537 L28.7525154,95.5242521 C28.5244911,96.3599145 27.9644788,96.7769784 27.0701596,96.7769784 C26.1851161,96.7769784 25.6293551,96.3599145 25.4005578,95.5242521 L23.7054481,89.4432537 C23.6969455,89.4259879 23.6923077,89.395677 23.6923077,89.351937 C23.6923077,89.2955356 23.7116318,89.2448894 23.7510529,89.2015331 C23.7900876,89.1581769 23.8422627,89.1366906 23.9095105,89.1366906 L25.2560135,89.1366906 C25.3970794,89.1366906 25.4863567,89.2257052 25.5253914,89.404118 L26.8135357,95.0024426 C26.8575946,95.2242117 26.9433936,95.3350962 27.0701596,95.3350962 C27.1973122,95.3350962 27.2827247,95.2242117 27.3271701,95.0024426 L28.6218845,89.404118 C28.6388897,89.3170219 28.6725137,89.2502609 28.7227563,89.2049863 C28.772999,89.159328 28.8344496,89.1366906 28.9047893,89.1366906 L30.2512923,89.1366906 C30.3123564,89.1366906 30.3633721,89.1562585 30.4020202,89.1953942 C30.4418279,89.2341462 30.4615385,89.2870945 30.4615385,89.351937" id="Fill-7" fill="#5AA3D1"></path>
                <path d="M37.1439842,95.0233144 L37.1439842,93.3985683 L36.2935686,93.3985683 C35.9076853,93.3985683 35.6016131,93.4395187 35.3753522,93.5214196 C35.1490913,93.6025621 34.9960552,93.7261717 34.9143068,93.8918693 C34.8329459,94.0575668 34.7922654,94.266869 34.7922654,94.5205341 L34.7922654,94.5721013 C34.7922654,94.8815045 34.8685897,95.0953568 35.0204635,95.2132788 C35.1707875,95.3315801 35.4206819,95.3911098 35.7670471,95.3911098 C36.2288673,95.3911098 36.6875881,95.2682586 37.1439842,95.0233144 L37.1439842,95.0233144 Z M38.9230769,96.4099413 C38.9230769,96.4872921 38.8967315,96.5506136 38.8448154,96.5999057 C38.7913497,96.6495771 38.7278107,96.6742232 38.6534235,96.6742232 L37.507009,96.6742232 C37.4411454,96.6742232 37.3791561,96.6484396 37.3222034,96.5964932 C37.2656382,96.5453052 37.2361933,96.482742 37.2361933,96.4099413 L37.2361933,96.1972266 C36.5949915,96.5836014 35.9607636,96.7769784 35.3323471,96.7769784 C34.6651874,96.7769784 34.1099958,96.6127975 33.6659975,96.2840566 C33.2223866,95.9553157 33,95.3846639 33,94.5721013 L33,94.5205341 C33,94.0177539 33.1115807,93.5961162 33.3362919,93.2567585 C33.5613905,92.9170216 33.9147295,92.6629773 34.3994083,92.4927297 C34.8856368,92.3224821 35.5171527,92.2379271 36.2935686,92.2379271 L37.1439842,92.2379271 L37.1439842,91.657796 C37.1439842,91.2452584 37.0506128,90.9631555 36.8642575,90.8130039 C36.6779022,90.6624732 36.3749296,90.5870182 35.9580516,90.5870182 C35.0793533,90.5870182 34.3459425,90.6215228 33.7582065,90.6901526 L33.6919555,90.6901526 C33.529621,90.6901526 33.4486475,90.615456 33.4486475,90.4649253 L33.4486475,89.6201332 C33.4486475,89.4779442 33.5331079,89.3858057 33.7051282,89.3425803 C34.4265286,89.2049414 35.1762116,89.1366906 35.9580516,89.1366906 C36.6004156,89.1366906 37.1401099,89.2288291 37.5786841,89.4138644 C38.0180332,89.5985204 38.352388,89.8810026 38.5805861,90.2616898 C38.8091716,90.641998 38.9230769,91.1072403 38.9230769,91.657796 L38.9230769,96.4099413 Z" id="Fill-9" fill="#5AA3D1"></path>
                <path d="M46.3134582,95.2571362 L46.3134582,90.632191 C45.8414088,90.5720972 45.3797569,90.5420502 44.9280867,90.5420502 C44.3429117,90.5420502 43.9369908,90.7074985 43.7111556,91.0364934 C43.4844887,91.3666293 43.3730268,91.8336879 43.3730268,92.4369085 L43.3730268,93.4524187 C43.3730268,94.0525966 43.4857364,94.5177535 43.7153147,94.8497911 C43.9432293,95.1818287 44.3479025,95.3476574 44.9280867,95.3476574 C45.5303136,95.3476574 45.9927973,95.3176104 46.3134582,95.2571362 L46.3134582,95.2571362 Z M48.2307692,96.0786725 C48.2307692,96.1821253 48.206231,96.2574328 48.1563227,96.3053557 C48.1064144,96.3528983 47.9999433,96.3954965 47.8339981,96.4346716 C47.347808,96.5464918 46.8591224,96.6316882 46.3625347,96.6902607 C45.8680265,96.7480725 45.3893226,96.7769784 44.9280867,96.7769784 C43.7910089,96.7769784 42.9292587,96.4860176 42.3415884,95.9040961 C41.7551657,95.3214138 41.4615385,94.5044416 41.4615385,93.4524187 L41.4615385,92.4369085 C41.4615385,91.7469702 41.5896365,91.1524974 41.8433371,90.6523491 C42.0987012,90.1518205 42.4838271,89.7703386 42.9999622,89.5071427 C43.5160973,89.2439468 44.1586668,89.1127292 44.9280867,89.1127292 C45.3518914,89.1127292 45.8143751,89.1423958 46.3134582,89.2032503 L46.3134582,86.8550257 C46.3134582,86.7903677 46.3446509,86.7298935 46.4053727,86.6739834 C46.4669263,86.6180733 46.5326389,86.5899281 46.6033423,86.5899281 L47.9404692,86.5899281 C48.0115886,86.5899281 48.0773012,86.6180733 48.138023,86.6739834 C48.1995765,86.7298935 48.2307692,86.7903677 48.2307692,86.8550257 L48.2307692,96.0786725 Z" id="Fill-11" fill="#5AA3D1"></path>
                <path d="M64.3076923,96.5695614 C64.3076923,96.7081018 64.234229,96.7769784 64.088817,96.7769784 L62.7570098,96.7769784 C62.6960428,96.7769784 62.6449214,96.748247 62.6051603,96.6896035 C62.5642632,96.6321407 62.543436,96.5695614 62.543436,96.5026526 L62.543436,90.1305804 C62.543436,90.0365146 62.5313183,89.9896785 62.5048109,89.9896785 C62.4911785,89.9896785 62.4699726,90.0191971 62.4400571,90.0766599 L61.1722464,92.6939718 C61.0908309,92.8506169 60.9484483,92.9285459 60.7466134,92.9285459 L59.4197291,92.9285459 C59.2186516,92.9285459 59.0770264,92.8506169 58.9952321,92.6939718 L57.7145464,90.0766599 C57.6842522,90.0191971 57.6619103,89.9896785 57.6501713,89.9896785 C57.6244212,89.9896785 57.6111675,90.0365146 57.6111675,90.1305804 L57.6111675,96.5026526 C57.6111675,96.5782201 57.590719,96.643161 57.5494432,96.6962944 C57.5085461,96.7502149 57.4589394,96.7769784 57.398351,96.7769784 L56.0654079,96.7769784 C55.9192385,96.7769784 55.8461538,96.7081018 55.8461538,96.5695614 L55.8461538,87.1389732 C55.8461538,86.987051 55.8980326,86.857563 56.0010328,86.7501154 C56.1040329,86.643455 56.228239,86.5899281 56.373651,86.5899281 L57.4498511,86.5899281 C57.5570167,86.5899281 57.6543367,86.6214145 57.7425685,86.6832067 C57.8304215,86.7465732 57.8963113,86.8241086 57.9383445,86.9181744 L59.928671,91.1149259 C60.0021344,91.2440203 60.0517411,91.3085676 60.0771124,91.3085676 C60.1028625,91.3085676 60.1520905,91.2440203 60.2255538,91.1149259 L62.2147443,86.9181744 C62.3230459,86.6997371 62.4858771,86.5899281 62.7055098,86.5899281 L63.7798165,86.5899281 C63.9339381,86.5899281 64.0607949,86.643455 64.1600083,86.7501154 C64.2584643,86.857563 64.3076923,86.987051 64.3076923,87.1389732 L64.3076923,96.5695614 Z" id="Fill-13" fill="#5AA3D1"></path>
                <path d="M71.7492723,93.4889741 L71.7492723,92.424695 C71.7492723,91.8741666 71.619173,91.4396586 71.3581612,91.1192754 C71.097556,90.7988921 70.7231139,90.6385109 70.2348348,90.6385109 C69.7416771,90.6385109 69.3660152,90.7988921 69.1078494,91.1192754 C68.849277,91.4396586 68.7195842,91.8741666 68.7195842,92.424695 L68.7195842,93.4889741 C68.7195842,94.0349527 68.8504967,94.4687023 69.1111019,94.7909813 C69.3717071,95.1132604 69.7461492,95.274779 70.2348348,95.274779 C70.7190483,95.274779 71.0926773,95.114777 71.3545022,94.7947728 C71.6179533,94.4743896 71.7492723,94.0387442 71.7492723,93.4889741 L71.7492723,93.4889741 Z M73.6153846,93.4889741 C73.6153846,94.1168494 73.4873181,94.6814065 73.2283391,95.1845409 C72.9709864,95.6872962 72.5855671,96.0782017 72.0741141,96.3580157 C71.5626611,96.6374506 70.9491615,96.7769784 70.2348348,96.7769784 C69.5111573,96.7769784 68.896438,96.6374506 68.3878309,96.3580157 C67.8816632,96.0782017 67.4978702,95.6872962 67.237265,95.1845409 C66.9766597,94.6814065 66.8461538,94.1168494 66.8461538,93.4889741 L66.8461538,92.424695 C66.8461538,91.7975779 66.9766597,91.2318835 67.237265,90.7291282 C67.4978702,90.2263729 67.8816632,89.8350882 68.3878309,89.5556534 C68.896438,89.2762185 69.5111573,89.1366906 70.2348348,89.1366906 C70.9491615,89.1366906 71.5626611,89.2762185 72.0741141,89.5556534 C72.5855671,89.8350882 72.9709864,90.2263729 73.2283391,90.7291282 C73.4873181,91.2318835 73.6153846,91.7975779 73.6153846,92.424695 L73.6153846,93.4889741 Z" id="Fill-15" fill="#5AA3D1"></path>
                <path d="M86.3076923,89.406407 L86.3076923,89.4458777 L85.1071161,95.6447113 C85.0501807,95.9388067 84.9814788,96.1632478 84.8994919,96.3191958 C84.8182642,96.4751437 84.7024957,96.5900731 84.5548434,96.6647578 C84.4068115,96.7390556 84.1972895,96.7769784 83.9247591,96.7769784 L83.5698622,96.7769784 C83.2164836,96.7769784 82.9428145,96.6899107 82.7443,96.5169362 C82.5457855,96.3435747 82.4038267,96.0796628 82.3176646,95.7236527 L81.2734707,91.6039959 C81.2601858,91.5560119 81.2469009,91.531633 81.233616,91.531633 C81.2210902,91.531633 81.2055279,91.5560119 81.1892064,91.6039959 L80.1495674,95.7236527 C80.0634053,96.0796628 79.9210669,96.3435747 79.7236911,96.5169362 C79.5263153,96.6899107 79.2484709,96.7769784 78.8905375,96.7769784 L78.5348815,96.7769784 C78.2638694,96.7769784 78.0554861,96.7390556 77.9059359,96.6647578 C77.7579041,96.5900731 77.6432743,96.4739828 77.5639444,96.3157131 C77.484235,96.1578303 77.4162921,95.934163 77.3612546,95.6447113 L76.1538462,89.4458777 L76.1538462,89.406407 C76.1538462,89.3313353 76.1788977,89.2682596 76.2316578,89.215632 C76.2832791,89.1626175 76.3455284,89.1366906 76.4184056,89.1366906 L77.7032462,89.1366906 C77.7723277,89.1366906 77.8273652,89.1595217 77.8672199,89.2055709 C77.9082134,89.251233 77.9332649,89.3096652 77.941995,89.3797063 L78.774769,95.0785777 C78.7876744,95.206664 78.8081711,95.2697397 78.8385366,95.2697397 C78.8730774,95.2697397 78.9034429,95.206664 78.9296331,95.0785777 L80.0265871,90.5514441 C80.0956686,90.2972064 80.1776555,90.1366149 80.2725477,90.0712173 C80.3666808,90.0050459 80.5325523,89.9721536 80.7690237,89.9721536 L81.6925147,89.9721536 C81.9327818,89.9721536 82.1009308,90.0050459 82.1992391,90.0712173 C82.2952701,90.1366149 82.3734612,90.2972064 82.4345718,90.5514441 L83.5307666,95.0785777 C83.5569569,95.206664 83.5869428,95.2697397 83.6218632,95.2697397 C83.6564039,95.2697397 83.6803168,95.206664 83.6928425,95.0785777 L84.5256166,89.3797063 C84.5301714,89.3139218 84.5548434,89.2574245 84.6000121,89.2086666 C84.6459399,89.1602957 84.6979408,89.1366906 84.7586719,89.1366906 L86.0427533,89.1366906 C86.1243606,89.1366906 86.1892668,89.1602957 86.2367129,89.2086666 C86.2837795,89.2574245 86.3076923,89.3228221 86.3076923,89.406407" id="Fill-17" fill="#5AA3D1"></path>
                <path d="M92.1452628,95.0233144 L92.1452628,93.3985683 L91.2949028,93.3985683 C90.9074951,93.3985683 90.6018304,93.4395187 90.3767465,93.5214196 C90.1485633,93.6025621 89.9959247,93.7261717 89.9141816,93.8918693 C89.832826,94.0575668 89.7933104,94.266869 89.7933104,94.5205341 L89.7933104,94.5721013 C89.7933104,94.8815045 89.8676927,95.0953568 90.019944,95.2132788 C90.1706456,95.3315801 90.4205236,95.3911098 90.7672535,95.3911098 C91.2290435,95.3911098 91.6877343,95.2682586 92.1452628,95.0233144 L92.1452628,95.0233144 Z M93.9230769,96.4099413 C93.9230769,96.4872921 93.8967332,96.5506136 93.8448206,96.5999057 C93.7913583,96.6495771 93.7270486,96.6742232 93.6530537,96.6742232 L92.5067142,96.6742232 C92.4412423,96.6742232 92.3792571,96.6484396 92.3223081,96.5964932 C92.2653592,96.5453052 92.2363036,96.482742 92.2363036,96.4099413 L92.2363036,96.1972266 C91.5955312,96.5836014 90.9613448,96.7769784 90.332582,96.7769784 C89.6650785,96.7769784 89.1099232,96.6127975 88.6655665,96.2840566 C88.222372,95.9553157 88,95.3846639 88,94.5721013 L88,94.5205341 C88,94.0177539 88.1127357,93.5961162 88.3374321,93.2567585 C88.5613538,92.9170216 88.9154445,92.6629773 89.4008664,92.4927297 C89.8855135,92.3224821 90.5173755,92.2379271 91.2949028,92.2379271 L92.1452628,92.2379271 L92.1452628,91.657796 C92.1452628,91.2452584 92.0515101,90.9631555 91.8640048,90.8130039 C91.6772743,90.6624732 91.3754836,90.5870182 90.9586329,90.5870182 C90.080767,90.5870182 89.3462419,90.6215228 88.7577695,90.6901526 L88.692685,90.6901526 C88.5295864,90.6901526 88.4486182,90.615456 88.4486182,90.4649253 L88.4486182,89.6201332 C88.4486182,89.4779442 88.5338479,89.3858057 88.7054695,89.3425803 C89.4256605,89.2049414 90.1764567,89.1366906 90.9586329,89.1366906 C91.5994053,89.1366906 92.1402265,89.2288291 92.5783847,89.4138644 C93.0180924,89.5985204 93.3528127,89.8810026 93.5802211,90.2616898 C93.8084042,90.641998 93.9230769,91.1072403 93.9230769,91.657796 L93.9230769,96.4099413 Z" id="Fill-19" fill="#5AA3D1"></path>
                <path d="M101.538462,86.9261412 C101.538462,87.0884771 101.467161,87.1704649 101.32456,87.1704649 L100.691768,87.1704649 C100.451938,87.1704649 100.277738,87.1921917 100.167952,87.2360552 C100.058165,87.2807386 99.9771416,87.365596 99.9301481,87.4910373 C99.881534,87.6164787 99.857227,87.7952122 99.857227,88.0276476 L99.857227,88.7249541 L101.214773,88.7249541 C101.293366,88.7249541 101.359805,88.75283 101.414091,88.8085817 C101.469187,88.8643334 101.49714,88.9315634 101.49714,89.0106817 L101.49714,89.8678644 C101.49714,89.9424733 101.468376,90.0064238 101.411255,90.0597159 C101.354133,90.1134179 101.288099,90.140064 101.214773,90.140064 L99.857227,90.140064 L99.857227,96.476903 C99.857227,96.5609405 99.8308944,96.63186 99.7782293,96.6896614 C99.725159,96.7478727 99.6579096,96.7769784 99.5756709,96.7769784 L98.2930713,96.7769784 C98.215694,96.7769784 98.146419,96.7470529 98.0868669,96.6859719 C98.0273147,96.6261208 97.9973361,96.5560212 97.9973361,96.476903 L97.9973361,90.140064 L96.7430946,89.937554 C96.5555255,89.9055788 96.4615385,89.8149822 96.4615385,89.6661743 L96.4615385,89.0106817 C96.4615385,88.9315634 96.4878711,88.8643334 96.5405362,88.8085817 C96.5927963,88.75283 96.6608559,88.7249541 96.7430946,88.7249541 L97.9973361,88.7249541 L97.9973361,88.0276476 C97.9973361,87.4377452 98.0957794,86.974514 98.2930713,86.6367242 C98.4911734,86.2997542 98.7650323,86.0664989 99.1162685,85.9365482 C99.4687201,85.8061875 99.9082717,85.7410072 100.436949,85.7410072 C100.642748,85.7410072 100.92552,85.7787216 101.283238,85.8525106 C101.453387,85.8943244 101.538462,85.971393 101.538462,86.0828964 L101.538462,86.9261412 Z" id="Fill-21" fill="#5AA3D1"></path>
                <path d="M107.376187,95.0233144 L107.376187,93.3985683 L106.526103,93.3985683 C106.138257,93.3985683 105.83294,93.4395187 105.607052,93.5214196 C105.379614,93.6025621 105.22618,93.7261717 105.144814,93.8918693 C105.063835,94.0575668 105.024314,94.266869 105.024314,94.5205341 L105.024314,94.5721013 C105.024314,94.8815045 105.099094,95.0953568 105.251365,95.2132788 C105.401311,95.3315801 105.651609,95.3911098 105.99761,95.3911098 C106.45946,95.3911098 106.917824,95.2682586 107.376187,95.0233144 L107.376187,95.0233144 Z M109.153846,96.4099413 C109.153846,96.4872921 109.127886,96.5506136 109.07558,96.5999057 C109.022885,96.6495771 108.959729,96.6742232 108.885337,96.6742232 L107.738848,96.6742232 C107.67143,96.6742232 107.610599,96.6484396 107.553643,96.5964932 C107.496299,96.5453052 107.468015,96.482742 107.468015,96.4099413 L107.468015,96.1972266 C106.827158,96.5836014 106.192114,96.7769784 105.563269,96.7769784 C104.896066,96.7769784 104.340063,96.6127975 103.896423,96.2840566 C103.452783,95.9553157 103.230769,95.3846639 103.230769,94.5721013 L103.230769,94.5205341 C103.230769,94.0177539 103.343132,93.5961162 103.567471,93.2567585 C103.791034,92.9170216 104.145559,92.6629773 104.631431,92.4927297 C105.116142,92.3224821 105.747699,92.2379271 106.526103,92.2379271 L107.376187,92.2379271 L107.376187,91.657796 C107.376187,91.2452584 107.282422,90.9631555 107.09528,90.8130039 C106.908912,90.6624732 106.606307,90.5870182 106.189402,90.5870182 C105.311421,90.5870182 104.5768,90.6215228 103.989025,90.6901526 L103.923157,90.6901526 C103.760037,90.6901526 103.678284,90.615456 103.678284,90.4649253 L103.678284,89.6201332 C103.678284,89.4779442 103.764687,89.3858057 103.936718,89.3425803 C104.656229,89.2049414 105.407123,89.1366906 106.189402,89.1366906 C106.830645,89.1366906 107.37115,89.2288291 107.809753,89.4138644 C108.249906,89.5985204 108.583507,89.8810026 108.810945,90.2616898 C109.041096,90.641998 109.153846,91.1072403 109.153846,91.657796 L109.153846,96.4099413 Z" id="Fill-23" fill="#5AA3D1"></path>
                <path d="M117.237272,91.7110038 L117.237272,91.6072839 C117.237272,91.2488401 117.132845,90.9704741 116.922451,90.7737113 C116.713598,90.5769485 116.338664,90.4789485 115.802273,90.4789485 C114.837002,90.4789485 114.353788,90.8549332 114.353788,91.6072839 L114.353788,91.7110038 C114.353788,92.0133932 114.455903,92.2643039 114.661288,92.4633546 C114.867444,92.6624053 115.247387,92.7607867 115.802273,92.7607867 C116.334425,92.7607867 116.707432,92.674989 116.919368,92.5018682 C117.131304,92.3291288 117.237272,92.0656345 117.237272,91.7110038 L117.237272,91.7110038 Z M117.387939,97.2359963 L117.387939,97.14486 C117.387939,97.0369455 117.350176,96.9450466 117.276576,96.8695446 C117.202206,96.7940426 117.054236,96.7162527 116.834594,96.6357935 C116.61341,96.5560969 116.270074,96.4600035 115.802273,96.3475131 L114.609267,96.0683845 C114.48673,96.2369294 114.400029,96.3795443 114.351476,96.4966105 C114.300612,96.6129141 114.275179,96.7795523 114.275179,96.9961439 L114.275179,97.1193114 C114.275179,97.4129303 114.391937,97.6325724 114.625837,97.7770939 C114.858966,97.9223781 115.272819,97.9944482 115.86624,97.9944482 C116.474688,97.9944482 116.880064,97.9338178 117.083522,97.8129383 C117.286595,97.6920589 117.387939,97.4991093 117.387939,97.2359963 L117.387939,97.2359963 Z M119.307692,90.0503411 C119.307692,90.1460533 119.292279,90.2097342 119.261452,90.2417654 C119.231781,90.2741779 119.173595,90.3081156 119.091518,90.3420534 L118.645682,90.5178434 C118.873031,90.8377736 118.986321,91.1920229 118.986321,91.5813539 L118.986321,91.6717275 C118.986321,92.2124439 118.863783,92.6643119 118.616781,93.0273317 C118.36978,93.3903514 118.009104,93.6584216 117.534753,93.8311611 C117.061172,94.0039005 116.484322,94.0908422 115.802273,94.0908422 C115.221955,94.0908422 114.734888,94.0149589 114.340302,93.8635735 C114.187322,93.9589043 114.110255,94.0733013 114.110255,94.2075271 C114.110255,94.3329824 114.148403,94.4290759 114.222388,94.4961888 C114.297529,94.5629204 114.412745,94.6136363 114.569963,94.6487181 L116.149848,95.0182203 C116.913588,95.1951543 117.489668,95.3518781 117.875777,95.4880105 C118.263041,95.6245243 118.573238,95.8220497 118.806753,96.0817308 C119.039497,96.3406493 119.157796,96.6956612 119.157796,97.14486 L119.157796,97.2359963 C119.157796,97.9273353 118.890757,98.4486042 118.357834,98.7982776 C117.824912,99.149095 116.994509,99.323741 115.86624,99.323741 C115.155291,99.323741 114.550311,99.2371806 114.052069,99.0648225 C113.554598,98.8913205 113.177352,98.6400284 112.921873,98.3090399 C112.666779,97.9784326 112.538462,97.5814751 112.538462,97.1193114 L112.538462,96.9961439 C112.538462,96.7238792 112.601272,96.4573342 112.72535,96.1984157 C112.849815,95.9391159 113.017051,95.7183298 113.22629,95.5368199 C113.117624,95.45903 113.014739,95.3507342 112.914551,95.2126952 C112.817446,95.0742748 112.743847,94.928228 112.696065,94.7753174 C112.648283,94.6212628 112.623236,94.4691148 112.623236,94.3173482 L112.623236,94.3047645 C112.623236,93.833449 112.802418,93.4746238 113.161168,93.228289 C112.96426,93.0254251 112.823226,92.7981564 112.739223,92.5472457 C112.653292,92.2970977 112.610905,92.0050041 112.610905,91.6717275 L112.610905,91.5813539 C112.610905,90.8549332 112.868696,90.2657888 113.384664,89.8139207 C113.899475,89.362434 114.705602,89.1366906 115.802273,89.1366906 L118.940851,89.1366906 C119.046048,89.1366906 119.132364,89.1713911 119.204036,89.2404106 C119.272627,89.3094301 119.307692,89.3937025 119.307692,89.4936092 L119.307692,90.0503411 Z" id="Fill-25" fill="#5AA3D1"></path>
                <path d="M127.769231,96.4957232 C127.769231,96.57449 127.744933,96.6409615 127.697811,96.6951377 C127.649952,96.7496982 127.588472,96.7769784 127.512634,96.7769784 L126.335308,96.7769784 C126.260575,96.7769784 126.198358,96.7470086 126.151604,96.6886059 C126.103377,96.6294347 126.079447,96.5652685 126.079447,96.4957232 L126.079447,92.091696 C126.079447,91.6821084 126.050732,91.3789521 125.994774,91.180306 C125.938448,90.9824283 125.834263,90.8418007 125.683692,90.7588073 C125.533857,90.6761982 125.315548,90.6347015 125.028027,90.6347015 C124.59288,90.6347015 124.095517,90.7872402 123.53741,91.0923177 L123.53741,96.4957232 C123.53741,96.57449 123.513112,96.6409615 123.465622,96.6951377 C123.417026,96.7496982 123.355546,96.7769784 123.281181,96.7769784 L122.103119,96.7769784 C122.036485,96.7769784 121.977213,96.7470086 121.924937,96.6886059 C121.873028,96.6294347 121.846154,96.5652685 121.846154,96.4957232 L121.846154,86.8577353 C121.846154,86.7924165 121.874501,86.7313241 121.927882,86.6744583 C121.982367,86.6179767 122.040166,86.5899281 122.103119,86.5899281 L123.281181,86.5899281 C123.351497,86.5899281 123.412977,86.6164398 123.461572,86.6686949 C123.512376,86.7205657 123.53741,86.7839635 123.53741,86.8577353 L123.53741,89.6284071 C123.78738,89.4670311 124.063488,89.3452307 124.366103,89.2626215 C124.669454,89.1796282 125.039807,89.1385157 125.478268,89.1385157 C127.005699,89.1385157 127.769231,90.1229092 127.769231,92.091696 L127.769231,96.4957232 Z" id="Fill-27" fill="#5AA3D1"></path>
                <path d="M132.811323,96.4978707 C132.811323,96.566885 132.786694,96.6305613 132.735679,96.6892806 C132.686774,96.7472374 132.629426,96.7769784 132.565393,96.7769784 L131.434607,96.7769784 C131.371278,96.7769784 131.313929,96.7472374 131.263969,96.6892806 C131.214713,96.6305613 131.189733,96.566885 131.189733,96.4978707 L131.189733,89.5533504 C131.189733,89.4793793 131.214009,89.4172282 131.261155,89.3653721 C131.308652,89.3131348 131.367408,89.287588 131.434607,89.287588 L132.565393,89.287588 C132.634,89.287588 132.690996,89.3131348 132.738845,89.3653721 C132.787398,89.4172282 132.811323,89.4793793 132.811323,89.5533504 L132.811323,96.4978707 Z M132.846154,88.0232148 C132.846154,88.0964234 132.820822,88.1585744 132.769103,88.2108118 C132.717032,88.2630492 132.661794,88.2889772 132.601279,88.2889772 L131.411035,88.2889772 C131.347001,88.2889772 131.287894,88.2641931 131.234415,88.2138622 C131.180233,88.1646751 131.153846,88.1009989 131.153846,88.0232148 L131.153846,86.8556905 C131.153846,86.7870574 131.180233,86.7249064 131.234415,86.6715251 C131.287894,86.617 131.347001,86.5899281 131.411035,86.5899281 L132.601279,86.5899281 C132.661794,86.5899281 132.717032,86.6181439 132.769103,86.6741942 C132.820822,86.7302445 132.846154,86.7908704 132.846154,86.8556905 L132.846154,88.0232148 Z" id="Fill-29" fill="#5AA3D1"></path>
                <path d="M139.529103,95.0233144 L139.529103,93.3985683 L138.678743,93.3985683 C138.29211,93.3985683 137.986058,93.4395187 137.759812,93.5214196 C137.533566,93.6025621 137.379765,93.7261717 137.29841,93.8918693 C137.217054,94.0575668 137.177151,94.266869 137.177151,94.5205341 L137.177151,94.5721013 C137.177151,94.8815045 137.251921,95.0953568 137.404559,95.2132788 C137.555261,95.3315801 137.805139,95.3911098 138.151481,95.3911098 C138.613659,95.3911098 139.07235,95.2682586 139.529103,95.0233144 L139.529103,95.0233144 Z M141.307692,96.4099413 C141.307692,96.4872921 141.280961,96.5506136 141.229436,96.5999057 C141.175586,96.6495771 141.112051,96.6742232 141.038057,96.6742232 L139.89133,96.6742232 C139.825083,96.6742232 139.763872,96.6484396 139.706924,96.5964932 C139.649975,96.5453052 139.620144,96.482742 139.620144,96.4099413 L139.620144,96.1972266 C138.979759,96.5836014 138.345573,96.7769784 137.717197,96.7769784 C137.048919,96.7769784 136.493764,96.6127975 136.050182,96.2840566 C135.606987,95.9553157 135.384615,95.3846639 135.384615,94.5721013 L135.384615,94.5205341 C135.384615,94.0177539 135.496964,93.5961162 135.721273,93.2567585 C135.944807,92.9170216 136.299285,92.6629773 136.785094,92.4927297 C137.270904,92.3224821 137.901991,92.2379271 138.678743,92.2379271 L139.529103,92.2379271 L139.529103,91.657796 C139.529103,91.2452584 139.435351,90.9631555 139.249008,90.8130039 C139.062277,90.6624732 138.760099,90.5870182 138.342861,90.5870182 C137.464995,90.5870182 136.731245,90.6215228 136.142772,90.6901526 L136.0773,90.6901526 C135.914202,90.6901526 135.833234,90.615456 135.833234,90.4649253 L135.833234,89.6201332 C135.833234,89.4779442 135.918851,89.3858057 136.090472,89.3425803 C136.809501,89.2049414 137.561072,89.1366906 138.342861,89.1366906 C138.984021,89.1366906 139.524842,89.2288291 139.964162,89.4138644 C140.40232,89.5985204 140.737041,89.8810026 140.964836,90.2616898 C141.192632,90.641998 141.307692,91.1072403 141.307692,91.657796 L141.307692,96.4099413 Z" id="Fill-31" fill="#5AA3D1"></path>
                <path d="M150.615385,96.495656 C150.615385,96.5744416 150.59182,96.640929 150.543956,96.6951182 C150.495723,96.7496917 150.433499,96.7769784 150.358388,96.7769784 L149.181652,96.7769784 C149.106541,96.7769784 149.044685,96.7470014 148.997188,96.6885847 C148.948955,96.6293994 148.924655,96.5652179 148.924655,96.495656 L148.924655,92.1297772 C148.924655,91.7116367 148.902195,91.4014902 148.855435,91.1985691 C148.80978,90.9952637 148.709264,90.8511436 148.55536,90.7639028 C148.40072,90.6766621 148.16066,90.6332339 147.834812,90.6332339 C147.455208,90.6332339 146.970669,90.7946485 146.381933,91.1167089 L146.381933,96.495656 C146.381933,96.5744416 146.358737,96.640929 146.310504,96.6951182 C146.263376,96.7496917 146.201151,96.7769784 146.126041,96.7769784 L144.9482,96.7769784 C144.881926,96.7769784 144.822647,96.7470014 144.769996,96.6885847 C144.718449,96.6293994 144.692308,96.5652179 144.692308,96.495656 L144.692308,89.4960301 C144.692308,89.421472 144.717345,89.3588278 144.767419,89.3065602 C144.817124,89.2539083 144.877139,89.2281589 144.9482,89.2281589 L146.063816,89.2281589 C146.142609,89.2281589 146.204833,89.2516024 146.251225,89.2996425 C146.297617,89.3480668 146.319709,89.413017 146.319709,89.4960301 L146.319709,89.7769683 C146.699681,89.5240855 147.032525,89.3542159 147.318977,89.2673596 C147.604693,89.1797345 147.964415,89.1366906 148.399616,89.1366906 C149.254553,89.1366906 149.837399,89.3949539 150.148151,89.9107118 C150.459272,90.4272382 150.615385,91.1666705 150.615385,92.1297772 L150.615385,96.495656 Z" id="Fill-33" fill="#5AA3D1"></path>
                <g id="Group-37" transform="translate(0.000000, 104.417266)">
                    <mask id="mask-2" fill="white">
                        <use xlink:href="#path-1"></use>
                    </mask>
                    <g id="Clip-36"></g>
                    <path d="M8.35915385,13.0089215 C8.35915385,13.2025725 8.24028938,13.3201602 8.00256044,13.3597441 C7.17292674,13.508378 6.16398901,13.582889 4.97816484,13.582889 C4.38585714,13.582889 3.80281685,13.4909145 3.23025275,13.3085178 C2.65849451,13.125733 2.14435531,12.8315698 1.68662637,12.4256401 C1.23050916,12.0204866 0.8626337,11.4620422 0.583805861,10.7510831 C0.304978022,10.0393478 0.165967033,9.17820251 0.165967033,8.16725903 L0.165967033,5.72508349 C0.165967033,4.38854249 0.399263736,3.31473036 0.86343956,2.50364711 C1.33003297,1.69256386 1.92193773,1.1228652 2.63915385,0.793774964 C3.35717582,0.465460884 4.13724908,0.301303844 4.97816484,0.301303844 C5.84527106,0.301303844 6.86508791,0.395606824 8.03842125,0.583824707 C8.22941026,0.607109394 8.3240989,0.680844234 8.3240989,0.80696962 L8.3240989,1.7061466 C8.3240989,1.83227198 8.25237729,1.89514064 8.11014286,1.89514064 L8.05615018,1.89514064 C6.74017949,1.79229994 5.71955678,1.74068555 4.99589377,1.74068555 C4.01878755,1.74068555 3.24314652,2.05347651 2.67541758,2.67905842 C2.10527106,3.30425225 1.81999634,4.31985266 1.81999634,5.72508349 L1.81999634,8.16725903 C1.81999634,9.5612356 2.10688278,10.5721791 2.67864103,11.2004775 C3.25039927,11.8291641 4.02442857,12.1431193 4.99589377,12.1431193 C5.83237729,12.1431193 6.83486813,12.0977141 8.00256044,12.0061277 L8.07468498,12.0061277 C8.26406227,12.0061277 8.35915385,12.1004307 8.35915385,12.2886486 L8.35915385,13.0089215 Z" id="Fill-35" fill="#4582A8" mask="url(#mask-2)"></path>
                </g>
                <path d="M17.7692308,117.658279 C17.7692308,117.80989 17.7067799,117.894824 17.581878,117.912288 C17.0129704,117.971027 15.8296264,118 14.0330548,118 C12.733673,118 11.7634679,117.737656 11.1188134,117.211381 C10.4753676,116.685503 10.1538462,115.835764 10.1538462,114.660972 L10.1538462,107.7555 C10.1538462,106.587059 10.4745618,105.739304 11.1151872,105.210647 C11.7550069,104.681594 12.7280323,104.417266 14.0330548,104.417266 C14.5544192,104.417266 14.9843232,104.420441 15.3223639,104.425998 C15.6608075,104.431951 16.0725806,104.445048 16.5592948,104.46529 C17.0448002,104.486325 17.387273,104.504979 17.581878,104.522442 C17.6419115,104.527998 17.6874402,104.555384 17.7212846,104.605392 C17.7531144,104.655003 17.7692308,104.712155 17.7692308,104.776054 L17.7692308,105.670245 C17.7692308,105.816697 17.7011391,105.889328 17.5653588,105.889328 L14.0507828,105.889328 C13.4101574,105.889328 12.9294868,105.949655 12.6087712,106.068722 C12.2888614,106.188979 12.0749167,106.379089 11.9689516,106.638654 C11.8617778,106.898617 11.8081909,107.270898 11.8081909,107.7555 L11.8081909,110.253123 L17.4054039,110.253123 C17.5049224,110.253123 17.5919508,110.288446 17.662057,110.358695 C17.7341777,110.428945 17.7692308,110.513482 17.7692308,110.612704 L17.7692308,111.287416 C17.7692308,111.387035 17.7297457,111.471572 17.6544017,111.541425 C17.5762373,111.611674 17.4928351,111.6466 17.4054039,111.6466 L11.8081909,111.6466 L11.8081909,114.660972 C11.8081909,115.145971 11.8617778,115.518253 11.9689516,115.779009 C12.0749167,116.038574 12.2888614,116.228287 12.6087712,116.348148 C12.9294868,116.468008 13.4101574,116.527542 14.0507828,116.527542 L17.5653588,116.527542 C17.7011391,116.527542 17.7692308,116.600569 17.7692308,116.747021 L17.7692308,117.658279 Z" id="Fill-38" fill="#4582A8"></path>
                <path d="M29.6153846,117.473359 C29.6153846,117.616437 29.5635246,117.740115 29.4629476,117.843584 C29.3615849,117.947861 29.2425426,118 29.1030706,118 L28.0014384,118 C27.7118867,118 27.5217333,117.901785 27.4286211,117.705356 L21.9377466,106.978933 C21.9204599,106.942961 21.9027803,106.925177 21.8854937,106.925177 C21.8744931,106.925177 21.8689928,106.942961 21.8689928,106.978933 L21.8689928,117.6516 C21.8689928,117.74739 21.8387411,117.829034 21.7770591,117.897339 C21.7169487,117.965645 21.6399444,118 21.5484036,118 L20.6282814,118 C20.4145553,118 20.3076923,117.925632 20.3076923,117.776491 L20.3076923,104.93542 C20.3076923,104.792341 20.3568022,104.669876 20.4542361,104.568832 C20.5524558,104.467788 20.6746411,104.417266 20.8188277,104.417266 L21.7986675,104.417266 C22.0241799,104.417266 22.1832958,104.443133 22.2764081,104.492847 C22.3691275,104.544177 22.4532036,104.640775 22.5282434,104.78345 L27.9751155,115.456521 L28.0191179,115.510277 C28.0301185,115.510277 28.0364046,115.492493 28.0364046,115.456521 L28.0364046,104.765262 C28.0364046,104.669876 28.0666563,104.588637 28.1271596,104.520331 C28.187663,104.451217 28.2615242,104.417266 28.3487433,104.417266 L29.2951884,104.417266 C29.3922294,104.417266 29.4711981,104.450004 29.5277726,104.515885 C29.5867045,104.580957 29.6153846,104.664218 29.6153846,104.765262 L29.6153846,117.473359 Z" id="Fill-40" fill="#4582A8"></path>
                <path d="M40.6153846,105.550609 C40.6153846,105.747044 40.5013983,105.845262 40.2734258,105.845262 L36.778638,105.845262 L36.778638,117.63421 C36.778638,117.741724 36.7489541,117.829433 36.6907736,117.89774 C36.6329889,117.965644 36.5573938,118 36.4651758,118 L35.4768989,118 C35.3827019,118 35.3051279,117.965644 35.24576,117.89774 C35.1828301,117.829433 35.153542,117.741724 35.153542,117.63421 L35.153542,105.845262 L31.6662742,105.845262 C31.4272196,105.845262 31.3076923,105.747044 31.3076923,105.550609 L31.3076923,104.747083 C31.3076923,104.664225 31.3409383,104.588238 31.4090134,104.51993 C31.4747139,104.451218 31.5613909,104.417266 31.6662742,104.417266 L40.2734258,104.417266 C40.367227,104.417266 40.4471757,104.448389 40.5144593,104.511038 C40.581347,104.573687 40.6153846,104.652908 40.6153846,104.747083 L40.6153846,105.550609 Z" id="Fill-42" fill="#4582A8"></path>
                <path d="M49.449589,108.440623 L49.449589,108.30806 C49.449589,107.72414 49.3214977,107.254361 49.0645046,106.897922 C48.8075114,106.541083 48.4264805,106.286369 47.9193852,106.132579 C47.4118845,105.97919 46.7612946,105.903097 45.9680207,105.903097 C44.9173484,105.903097 44.2464909,105.920718 43.9542321,105.955962 L43.9542321,110.916473 C45.0280095,110.940503 45.6996777,110.952117 45.9680207,110.952117 C46.7556197,110.952117 47.4017507,110.876824 47.9047925,110.726639 C48.4102665,110.576454 48.7925134,110.316935 49.0559922,109.948881 C49.3190656,109.580427 49.449589,109.077007 49.449589,108.440623 M51.6153846,117.761306 C51.6153846,117.920302 51.5379624,118 51.3823072,118 L50.2011115,118 C50.0766685,118 49.9846536,117.986383 49.9291204,117.960351 C49.871155,117.933518 49.8046773,117.867036 49.7264444,117.761306 L46.4512003,112.36706 L46.2817632,112.36706 L45.9680207,112.36706 C45.6040147,112.36706 44.9327518,112.349038 43.9542321,112.313795 L43.9542321,117.637153 C43.9542321,117.743684 43.924236,117.830591 43.86546,117.898275 C43.8054679,117.965958 43.7239921,118 43.6238702,118 L42.6384595,118 C42.5432018,118 42.4637528,117.965958 42.4021393,117.898275 C42.3380937,117.830591 42.3076923,117.743684 42.3076923,117.637153 L42.3076923,104.956731 C42.3076923,104.72084 42.4532137,104.588677 42.7462832,104.55864 C43.1094785,104.51779 43.5800922,104.483748 44.155692,104.457316 C44.7304811,104.430883 45.336077,104.417266 45.9680207,104.417266 C46.988697,104.417266 47.8808768,104.542621 48.6441546,104.793329 C49.4074323,105.043638 50.0089747,105.460952 50.4467548,106.044871 C50.8861564,106.62799 51.1054518,107.38292 51.1054518,108.30806 L51.1054518,108.440623 C51.1054518,109.407815 50.8439998,110.200391 50.3223118,110.819153 C49.7998131,111.438717 49.1009862,111.862839 48.2233992,112.093123 L51.5606621,117.60191 C51.5971438,117.654775 51.6153846,117.70804 51.6153846,117.761306" id="Fill-44" fill="#4582A8"></path>
                <path d="M60.9230769,117.658279 C60.9230769,117.80989 60.8614318,117.894824 60.7369329,117.912288 C60.1672195,117.971027 58.9838755,118 57.1873039,118 C55.8879221,118 54.9165083,117.737656 54.2734654,117.211381 C53.6296167,116.685503 53.3076923,115.835764 53.3076923,114.660972 L53.3076923,107.7555 C53.3076923,106.587059 53.6284079,105.739304 54.2690334,105.210647 C54.9096588,104.681594 55.8818785,104.417266 57.1873039,104.417266 C57.7078624,104.417266 58.139781,104.420441 58.476613,104.425998 C58.8142508,104.431951 59.2268297,104.445048 59.712738,104.46529 C60.1986464,104.486325 60.5411191,104.504979 60.7369329,104.522442 C60.7949518,104.527998 60.8412864,104.555384 60.8743249,104.605392 C60.9069606,104.655003 60.9230769,104.712155 60.9230769,104.776054 L60.9230769,105.670245 C60.9230769,105.816697 60.8549853,105.889328 60.7192049,105.889328 L57.2050319,105.889328 C56.5636006,105.889328 56.0837359,105.949655 55.7638261,106.068722 C55.4435134,106.188979 55.2299716,106.379089 55.1232006,106.638654 C55.0160268,106.898617 54.9628428,107.270898 54.9628428,107.7555 L54.9628428,110.253123 L60.55925,110.253123 C60.6599773,110.253123 60.7457969,110.288446 60.8159031,110.358695 C60.8880238,110.428945 60.9230769,110.513482 60.9230769,110.612704 L60.9230769,111.287416 C60.9230769,111.387035 60.8839947,111.471572 60.8078449,111.541425 C60.7300835,111.611674 60.6470842,111.6466 60.55925,111.6466 L54.9628428,111.6466 L54.9628428,114.660972 C54.9628428,115.145971 55.0160268,115.518253 55.1232006,115.779009 C55.2299716,116.038574 55.4435134,116.228287 55.7638261,116.348148 C56.0837359,116.468008 56.5636006,116.527542 57.2050319,116.527542 L60.7192049,116.527542 C60.8549853,116.527542 60.9230769,116.600569 60.9230769,116.747021 L60.9230769,117.658279 Z" id="Fill-46" fill="#4582A8"></path>
                <path d="M75.3076923,111.350208 C75.3076923,111.450331 75.2694119,111.535636 75.193254,111.606523 C75.1158873,111.67701 75.0320733,111.712654 74.9438269,111.712654 L69.3468275,111.712654 L69.3468275,117.637553 C69.3468275,117.743684 69.3113677,117.830992 69.2396423,117.898675 C69.1687228,117.965958 69.083297,118 68.9825591,118 L68.0565761,118 C67.956644,118 67.8716212,117.964356 67.798284,117.893469 C67.7277674,117.823382 67.6923077,117.737677 67.6923077,117.637553 L67.6923077,107.786217 C67.6923077,106.607164 68.0126543,105.75171 68.6533476,105.217853 C69.2936378,104.684395 70.2663633,104.417266 71.5719269,104.417266 C72.0925405,104.417266 72.5236989,104.420871 72.8617753,104.426077 C73.1990459,104.432485 73.6112656,104.445701 74.0980312,104.466126 C74.583991,104.486952 74.926097,104.506176 75.1215286,104.523797 C75.1795537,104.529404 75.226699,104.557038 75.2593381,104.607501 C75.2915742,104.657562 75.3076923,104.715233 75.3076923,104.779713 L75.3076923,105.682024 C75.3076923,105.829806 75.2395935,105.903097 75.1033958,105.903097 L71.5888509,105.903097 C70.9485606,105.903097 70.4686451,105.963972 70.1482984,106.08412 C69.8275489,106.205069 69.6135815,106.396905 69.5076052,106.659228 C69.40042,106.921551 69.3468275,107.297214 69.3468275,107.786217 L69.3468275,110.306522 L74.9438269,110.306522 C75.0449678,110.306522 75.1307965,110.342166 75.2009101,110.413053 C75.2722326,110.48394 75.3076923,110.569245 75.3076923,110.668968 L75.3076923,111.350208 Z" id="Fill-48" fill="#4582A8"></path>
                <g id="Group-52" transform="translate(77.000000, 104.417266)">
                    <mask id="mask-4" fill="white">
                        <use xlink:href="#path-3"></use>
                    </mask>
                    <g id="Clip-51"></g>
                    <path d="M8.45815385,8.07287844 L8.45815385,5.81077114 C8.45815385,5.0970955 8.38179692,4.47423013 8.22948923,3.9429512 C8.07718154,3.41167227 7.86313846,2.9875029 7.58776615,2.67083116 C7.31320615,2.35377135 6.97650462,2.11937217 6.57928615,1.96802171 C6.18206769,1.81667124 5.71945846,1.74099601 5.19430154,1.74099601 C3.00025846,1.74099601 1.90323692,3.09771708 1.90323692,5.81077114 L1.90323692,8.07287844 C1.90323692,9.02095326 2.03442462,9.79982602 2.29720615,10.4079444 C2.56039385,11.0164509 2.93568,11.4576957 3.42306462,11.7312908 C3.91085538,12.0060501 4.50018462,12.1430416 5.19430154,12.1430416 C7.36966154,12.1430416 8.45815385,10.7867087 8.45815385,8.07287844 L8.45815385,8.07287844 Z M10.1522215,8.07287844 C10.1522215,9.02716251 10.0336246,9.85376888 9.79480615,10.5538618 C9.55517538,11.2535666 9.21441231,11.8275341 8.77129846,12.2761524 C8.32940308,12.7239946 7.80505846,13.054249 7.19826462,13.2657516 C6.59147077,13.4768661 5.92375385,13.5828114 5.19430154,13.5828114 C4.46972308,13.5828114 3.80241231,13.4768661 3.18871385,13.2657516 C2.57704615,13.054249 2.04701538,12.7216661 1.60268308,12.2672266 C1.15672615,11.8135633 0.814338462,11.2333866 0.575926154,10.5282486 C0.337107692,9.82272263 0.217292308,9.00387782 0.217292308,8.07287844 L0.217292308,5.81077114 C0.217292308,4.87433866 0.337107692,4.0547177 0.575926154,3.35190824 C0.814338462,2.64948687 1.15875692,2.0708624 1.60715077,1.61642294 C2.05595077,1.16275963 2.58232615,0.829788613 3.18871385,0.618286043 C3.79591385,0.406783474 4.46403692,0.301226228 5.19430154,0.301226228 C5.92903385,0.301226228 6.59715692,0.406783474 7.19826462,0.618286043 C7.79896615,0.829788613 8.32046769,1.16004308 8.76317538,1.60788522 C9.20507077,2.05689159 9.54786462,2.62891873 9.78993231,3.32629509 C10.0324062,4.02250721 10.1522215,4.85144206 10.1522215,5.81077114 L10.1522215,8.07287844 Z" id="Fill-50" fill="#4582A8" mask="url(#mask-4)"></path>
                </g>
                <path d="M95.9872398,108.440623 L95.9872398,108.30806 C95.9872398,107.72414 95.8599593,107.254361 95.6037768,106.897922 C95.3463783,106.541083 94.9649421,106.286369 94.4574414,106.132579 C93.9503461,105.97919 93.2993508,105.903097 92.5068876,105.903097 C91.4562153,105.903097 90.7853577,105.920718 90.4922883,105.955962 L90.4922883,110.916473 C91.5668764,110.940503 92.2381393,110.952117 92.5068876,110.952117 C93.2936758,110.952117 93.9398069,110.876824 94.4432541,110.726639 C94.9483226,110.576454 95.3309749,110.316935 95.5940484,109.948881 C95.8563111,109.580427 95.9872398,109.077007 95.9872398,108.440623 M98.1538462,117.761306 C98.1538462,117.920302 98.0768293,118 97.9211741,118 L96.7387624,118 C96.613914,118 96.5231151,117.986383 96.4659605,117.960351 C96.4104273,117.933518 96.3427335,117.867036 96.2657166,117.761306 L92.9892565,112.36706 L92.819414,112.36706 L92.5068876,112.36706 C92.1424762,112.36706 91.4712133,112.349038 90.4922883,112.313795 L90.4922883,117.637153 C90.4922883,117.743684 90.4626976,117.830591 90.4031108,117.898275 C90.3435241,117.965958 90.2624537,118 90.161521,118 L89.1765157,118 C89.081258,118 89.0026197,117.965958 88.9397902,117.898275 C88.8765552,117.830591 88.8461538,117.743684 88.8461538,117.637153 L88.8461538,104.956731 C88.8461538,104.72084 88.9920806,104.588677 89.2843393,104.55864 C89.6475347,104.51779 90.1181484,104.483748 90.6937482,104.457316 C91.269348,104.430883 91.8737278,104.417266 92.5068876,104.417266 C93.5271586,104.417266 94.4185276,104.542621 95.1826161,104.793329 C95.9458939,105.043638 96.5474362,105.460952 96.9856217,106.044871 C97.4242126,106.62799 97.643508,107.38292 97.643508,108.30806 L97.643508,108.440623 C97.643508,109.407815 97.3828667,110.200391 96.8599626,110.819153 C96.33868,111.438717 95.6386371,111.862839 94.7614554,112.093123 L98.0999343,117.60191 C98.1356053,117.654775 98.1538462,117.70804 98.1538462,117.761306" id="Fill-53" fill="#4582A8"></path>
                <path d="M111.808698,114.196723 L111.808698,113.890334 C111.808698,113.21207 111.609983,112.663189 111.2114,112.242896 C110.812817,111.822206 110.140329,111.611464 109.191633,111.611464 L106.514722,111.611464 L106.514722,116.545047 C106.695792,116.551 106.990797,116.565685 107.400504,116.589498 C107.809445,116.61212 108.115191,116.624026 108.318894,116.624026 C109.088055,116.624026 109.722181,116.553779 110.225109,116.413681 C110.72727,116.273583 111.116645,116.026725 111.393236,115.673504 C111.671362,115.319887 111.808698,114.828155 111.808698,114.196723 L111.808698,114.196723 Z M111.741181,108.168155 L111.741181,107.878831 C111.741181,107.078329 111.450012,106.532226 110.869593,106.240124 C110.287256,105.948023 109.408763,105.801972 108.234881,105.801972 C107.969031,105.801972 107.794484,105.803559 107.709703,105.806337 C107.624923,105.809512 107.457664,105.815069 107.209844,105.8238 C106.960874,105.832531 106.730318,105.84285 106.514722,105.854359 L106.514722,110.306134 L109.191633,110.306134 C110.891076,110.306134 111.741181,109.593342 111.741181,108.168155 L111.741181,108.168155 Z M113.384615,114.196723 C113.384615,116.732373 111.695914,118 108.318894,118 C107.093224,118 106.151049,117.947612 105.489686,117.842043 C105.287134,117.812674 105.140974,117.750364 105.054275,117.653923 C104.966426,117.557482 104.923077,117.398731 104.923077,117.176479 L104.923077,105.223721 C104.923077,104.814937 105.106064,104.592686 105.472806,104.557364 C106.2412,104.464098 107.161508,104.417266 108.234881,104.417266 C109.240353,104.417266 110.115777,104.522836 110.86499,104.732784 C111.612668,104.943129 112.207665,105.30389 112.652666,105.815069 C113.094981,106.326247 113.317482,107.014035 113.317482,107.878831 L113.317482,108.168155 C113.317482,108.828559 113.152141,109.404825 112.825295,109.898938 C112.498066,110.392256 112.043475,110.755796 111.461521,110.989557 C112.0546,111.194346 112.523769,111.55471 112.867494,112.071842 C113.212369,112.588576 113.384615,113.195005 113.384615,113.890334 L113.384615,114.196723 Z" id="Fill-55" fill="#4582A8"></path>
                <path d="M123.065473,108.440623 L123.065473,108.30806 C123.065473,107.72414 122.937388,107.254361 122.680406,106.897922 C122.423424,106.541083 122.042004,106.286369 121.535336,106.132579 C121.027858,105.97919 120.377701,105.903097 119.584057,105.903097 C118.532619,105.903097 117.863007,105.920718 117.569545,105.955962 L117.569545,110.916473 C118.644086,110.940503 119.315725,110.952117 119.584057,110.952117 C120.372027,110.952117 121.017319,110.876824 121.520744,110.726639 C122.026196,110.576454 122.408426,110.316935 122.671894,109.948881 C122.93455,109.580427 123.065473,109.077007 123.065473,108.440623 M125.230769,117.761306 C125.230769,117.920302 125.15335,118 124.999323,118 L123.816963,118 C123.69212,118 123.60092,117.986383 123.543768,117.960351 C123.486616,117.933518 123.420141,117.867036 123.342317,117.761306 L120.06681,112.36706 L119.896975,112.36706 L119.584057,112.36706 C119.219661,112.36706 118.549238,112.349038 117.569545,112.313795 L117.569545,117.637153 C117.569545,117.743684 117.540361,117.830591 117.479966,117.898275 C117.420787,117.965958 117.340531,118 117.238792,118 L116.254235,118 C116.158982,118 116.080347,117.965958 116.01752,117.898275 C115.954693,117.830591 115.923077,117.743684 115.923077,117.637153 L115.923077,104.956731 C115.923077,104.72084 116.070213,104.588677 116.362459,104.55864 C116.72645,104.51779 117.195827,104.483748 117.770591,104.457316 C118.346976,104.430883 118.951735,104.417266 119.584057,104.417266 C120.604283,104.417266 121.495613,104.542621 122.260074,104.793329 C123.023318,105.043638 123.624429,105.460952 124.061785,106.044871 C124.501573,106.62799 124.721264,107.38292 124.721264,108.30806 L124.721264,108.440623 C124.721264,109.407815 124.459013,110.200391 123.936942,110.819153 C123.415682,111.438717 122.71648,111.862839 121.838932,112.093123 L125.17767,117.60191 C125.213745,117.654775 125.230769,117.70804 125.230769,117.761306" id="Fill-57" fill="#4582A8"></path>
                <path d="M133.101584,112.128366 L131.499126,106.177435 C131.442132,105.959166 131.329707,105.849831 131.162239,105.849831 C130.984232,105.849831 130.866731,105.959166 130.809347,106.177435 L129.206108,112.128366 L133.101584,112.128366 Z M136.230769,117.70804 C136.230769,117.90228 136.130054,118 135.928235,118 L134.885173,118 C134.731368,118 134.633776,117.908688 134.593178,117.726063 L133.438081,113.560931 L128.869221,113.560931 L127.740669,117.726063 C127.724273,117.802557 127.680552,117.867036 127.611848,117.920302 C127.542753,117.973167 127.478342,118 127.421348,118 L126.378287,118 C126.298261,118 126.227605,117.971565 126.167879,117.916297 C126.107372,117.859827 126.076923,117.790542 126.076923,117.70804 C126.076923,117.649168 126.083559,117.607917 126.09449,117.584288 L129.361865,105.796565 C129.505129,105.283934 129.742863,104.925893 130.077018,104.722042 C130.409611,104.518992 130.771872,104.417266 131.162239,104.417266 C131.414416,104.417266 131.656054,104.457316 131.886371,104.536613 C132.115907,104.615911 132.325924,104.758086 132.516033,104.961136 C132.705752,105.164587 132.848626,105.437323 132.946608,105.778944 L136.213203,117.584288 C136.225694,117.607917 136.230769,117.649168 136.230769,117.70804 L136.230769,117.70804 Z" id="Fill-59" fill="#4582A8"></path>
                <path d="M139.615385,117.63421 C139.615385,117.729194 139.583021,117.814074 139.520343,117.888848 C139.456436,117.962815 139.376553,118 139.279873,118 L138.258179,118 C138.17256,118 138.096773,117.965644 138.027131,117.89774 C137.957898,117.829433 137.923077,117.741724 137.923077,117.63421 L137.923077,104.765272 C137.923077,104.675946 137.95544,104.595513 138.022215,104.523972 C138.088989,104.452835 138.167235,104.417266 138.258179,104.417266 L139.279873,104.417266 C139.370408,104.417266 139.448243,104.449601 139.514608,104.515484 C139.581383,104.580962 139.615385,104.664225 139.615385,104.765272 L139.615385,117.63421 Z" id="Fill-61" fill="#4582A8"></path>
                <path d="M152.307692,117.473359 C152.307692,117.616437 152.257795,117.740115 152.156428,117.843584 C152.055061,117.947861 151.935227,118 151.796535,118 L150.69525,118 C150.405293,118 150.214346,117.901785 150.122408,117.705356 L144.630516,106.978933 C144.613621,106.942961 144.596727,106.925177 144.578654,106.925177 C144.56726,106.925177 144.560973,106.942961 144.560973,106.978933 L144.560973,117.6516 C144.560973,117.74739 144.531506,117.829034 144.470608,117.897339 C144.409709,117.965645 144.332701,118 144.240764,118 L143.320996,118 C143.10726,118 143,117.925632 143,117.776491 L143,104.93542 C143,104.792341 143.049505,104.669876 143.147336,104.568832 C143.246345,104.467788 143.367357,104.417266 143.511943,104.417266 L144.492217,104.417266 C144.717739,104.417266 144.876076,104.443133 144.969192,104.492847 C145.062308,104.544177 145.145602,104.640775 145.221431,104.78345 L150.668533,115.456521 L150.712144,115.510277 C150.723931,115.510277 150.729431,115.492493 150.729431,115.456521 L150.729431,104.765262 C150.729431,104.669876 150.760077,104.588637 150.820583,104.520331 C150.881482,104.451217 150.954953,104.417266 151.042176,104.417266 L151.98709,104.417266 C152.086099,104.417266 152.1635,104.450004 152.220862,104.515885 C152.279011,104.580957 152.307692,104.664218 152.307692,104.765262 L152.307692,117.473359 Z" id="Fill-63" fill="#4582A8"></path>
                <path d="M168.384615,117.63421 C168.384615,117.735257 168.346897,117.821753 168.271854,117.89289 C168.197204,117.964027 168.115089,118 168.029045,118 L167.118313,118 C167.025197,118 166.944261,117.964027 166.875111,117.89289 C166.805962,117.821753 166.771387,117.735257 166.771387,117.63421 L166.771387,111.565329 L160.688973,111.565329 L160.688973,117.63421 C160.688973,117.741724 160.655184,117.829433 160.585249,117.89774 C160.516885,117.965644 160.433198,118 160.334974,118 L159.433279,118 C159.33427,118 159.25019,117.964027 159.180647,117.89289 C159.111891,117.821753 159.076923,117.735257 159.076923,117.63421 L159.076923,104.78346 C159.076923,104.694135 159.111891,104.610872 159.180647,104.533672 C159.25019,104.456068 159.33427,104.417266 159.433279,104.417266 L160.334974,104.417266 C160.433198,104.417266 160.516885,104.452835 160.585249,104.523972 C160.655184,104.595513 160.688973,104.682413 160.688973,104.78346 L160.688973,110.084384 L166.771387,110.084384 L166.771387,104.78346 C166.771387,104.694135 166.805962,104.610872 166.875111,104.533672 C166.944261,104.456068 167.025197,104.417266 167.118313,104.417266 L168.029045,104.417266 C168.115089,104.417266 168.197204,104.456068 168.271854,104.533672 C168.346897,104.610872 168.384615,104.694135 168.384615,104.78346 L168.384615,117.63421 Z" id="Fill-65" fill="#4582A8"></path>
                <path d="M179.384615,117.658279 C179.384615,117.80989 179.322964,117.894824 179.197243,117.912288 C178.628275,117.971027 177.445209,118 175.648044,118 C174.349331,118 173.377411,117.737656 172.733897,117.211381 C172.08998,116.685503 171.769231,115.835764 171.769231,114.660972 L171.769231,107.7555 C171.769231,106.587059 172.088771,105.739304 172.728659,105.210647 C173.369755,104.681594 174.342883,104.417266 175.648044,104.417266 C176.169867,104.417266 176.600219,104.420441 176.938295,104.425998 C177.276775,104.431951 177.687383,104.445048 178.174954,104.46529 C178.661317,104.486325 179.001408,104.504979 179.197243,104.522442 C179.25688,104.527998 179.30201,104.555384 179.335858,104.605392 C179.367691,104.655003 179.384615,104.712155 179.384615,104.776054 L179.384615,105.670245 C179.384615,105.816697 179.316919,105.889328 179.179916,105.889328 L175.665774,105.889328 C175.025081,105.889328 174.545165,105.949655 174.224416,106.068722 C173.904472,106.188979 173.690908,106.379089 173.583722,106.638654 C173.47694,106.898617 173.423751,107.270898 173.423751,107.7555 L173.423751,110.253123 L179.019944,110.253123 C179.121085,110.253123 179.206914,110.288446 179.277833,110.358695 C179.34835,110.428945 179.384615,110.513482 179.384615,110.612704 L179.384615,111.287416 C179.384615,111.387035 179.345932,111.471572 179.269371,111.541425 C179.192004,111.611674 179.108593,111.6466 179.019944,111.6466 L173.423751,111.6466 L173.423751,114.660972 C173.423751,115.145971 173.47694,115.518253 173.583722,115.779009 C173.690908,116.038574 173.904472,116.228287 174.224416,116.348148 C174.545165,116.468008 175.025081,116.527542 175.665774,116.527542 L179.179916,116.527542 C179.316919,116.527542 179.384615,116.600569 179.384615,116.747021 L179.384615,117.658279 Z" id="Fill-67" fill="#4582A8"></path>
                <path d="M187.2557,112.128366 L185.65279,106.177435 C185.595404,105.959166 185.483364,105.849831 185.317061,105.849831 C185.137876,105.849831 185.01998,105.959166 184.963375,106.177435 L183.360075,112.128366 L187.2557,112.128366 Z M190.384615,117.70804 C190.384615,117.90228 190.284677,118 190.08324,118 L189.040138,118 C188.885157,118 188.787951,117.908688 188.747352,117.726063 L187.59182,113.560931 L183.023955,113.560931 L181.89536,117.726063 C181.877793,117.802557 181.83407,117.867036 181.765753,117.920302 C181.696655,117.973167 181.633023,118 181.576027,118 L180.533316,118 C180.452897,118 180.381847,117.971565 180.321338,117.916297 C180.261609,117.859827 180.230769,117.790542 180.230769,117.70804 C180.230769,117.649168 180.237015,117.607917 180.249508,117.584288 L183.514666,105.796565 C183.659107,105.283934 183.89685,104.925893 184.230627,104.722042 C184.564014,104.518992 184.925898,104.417266 185.317061,104.417266 C185.569639,104.417266 185.810505,104.457316 186.04044,104.536613 C186.270766,104.615911 186.480401,104.758086 186.669346,104.961136 C186.859072,105.164587 187.003123,105.437323 187.100328,105.778944 L190.367829,117.584288 C190.37954,117.607917 190.384615,117.649168 190.384615,117.70804 L190.384615,117.70804 Z" id="Fill-69" fill="#4582A8"></path>
                <g id="Group-73" transform="translate(192.076923, 104.417266)">
                    <mask id="mask-6" fill="white">
                        <use xlink:href="#path-5"></use>
                    </mask>
                    <g id="Clip-72"></g>
                    <path d="M7.53424269,12.7919859 C7.53424269,12.9402317 7.47522346,13.0232804 7.357185,13.0403558 C7.15613885,13.0748948 6.70606962,13.1086576 6.00850038,13.1431965 C5.31016962,13.1773474 4.64268115,13.1948109 4.00336962,13.1948109 C3.29133115,13.1948109 2.66839269,13.1175834 2.13721962,12.9635164 C1.60376192,12.8094494 1.17082731,12.4908372 0.837654231,12.00768 C0.504481154,11.5252989 0.337323462,10.8325795 0.337323462,9.9299098 L0.337323462,0.384740637 C0.337323462,0.298975375 0.371211923,0.219031285 0.438608077,0.144908366 C0.506385,0.070397369 0.587488846,0.0331418705 0.682300385,0.0331418705 L1.55654654,0.0331418705 C1.65211962,0.0331418705 1.73284269,0.0672927441 1.80061962,0.135982569 C1.867635,0.204284317 1.90152346,0.28772111 1.90152346,0.384740637 L1.90152346,9.9299098 C1.90152346,10.4041413 1.951785,10.7677704 2.05306962,11.0227378 C2.15397346,11.2765408 2.35578115,11.4620422 2.65773115,11.5792418 C2.96082346,11.6968294 3.41508115,11.7550412 4.01974269,11.7550412 L7.34119269,11.7550412 C7.46951192,11.7550412 7.53424269,11.8264475 7.53424269,11.9692603 L7.53424269,12.7919859 Z" id="Fill-71" fill="#4582A8" mask="url(#mask-6)"></path>
                </g>
                <path d="M208.153846,105.550609 C208.153846,105.747044 208.039836,105.845262 207.813002,105.845262 L204.317075,105.845262 L204.317075,117.63421 C204.317075,117.741724 204.286989,117.829433 204.229192,117.89774 C204.170604,117.965644 204.095388,118 204.002755,118 L203.015059,118 C202.921634,118 202.84444,117.965644 202.78308,117.89774 C202.72172,117.829433 202.691634,117.741724 202.691634,117.63421 L202.691634,105.845262 L199.203228,105.845262 C198.965707,105.845262 198.846154,105.747044 198.846154,105.550609 L198.846154,104.747083 C198.846154,104.664225 198.878615,104.588238 198.945121,104.51993 C199.013211,104.451218 199.098719,104.417266 199.203228,104.417266 L207.813002,104.417266 C207.906823,104.417266 207.987185,104.448389 208.053691,104.511038 C208.119801,104.573687 208.153846,104.652908 208.153846,104.747083 L208.153846,105.550609 Z" id="Fill-74" fill="#4582A8"></path>
                <g id="Group-78" transform="translate(209.846154, 104.417266)">
                    <mask id="mask-8" fill="white">
                        <use xlink:href="#path-7"></use>
                    </mask>
                    <g id="Clip-77"></g>
                    <path d="M9.75435323,13.0975905 C9.75435323,13.1974636 9.71536246,13.2829549 9.63778708,13.3532655 C9.561024,13.4235761 9.476544,13.4591309 9.38759631,13.4591309 L8.44572554,13.4591309 C8.34946708,13.4591309 8.26661169,13.4235761 8.19431631,13.3532655 C8.12323938,13.2829549 8.087904,13.1974636 8.087904,13.0975905 L8.087904,7.09921557 L1.79983015,7.09921557 L1.79983015,13.0975905 C1.79983015,13.2038554 1.76449477,13.2905452 1.69341785,13.3580594 C1.62071631,13.4251741 1.53461169,13.4591309 1.43307323,13.4591309 L0.499731692,13.4591309 C0.397787077,13.4591309 0.312088615,13.4235761 0.239793231,13.3532655 C0.167497846,13.2829549 0.132162462,13.1974636 0.132162462,13.0975905 L0.132162462,0.396136437 C0.132162462,0.307848667 0.167497846,0.22555328 0.239793231,0.149250275 C0.312088615,0.0725477782 0.397787077,0.0341965298 0.499731692,0.0341965298 L1.43307323,0.0341965298 C1.53461169,0.0341965298 1.62071631,0.0693518409 1.69341785,0.139662463 C1.76449477,0.210372577 1.79983015,0.296263394 1.79983015,0.396136437 L1.79983015,5.63547626 L8.087904,5.63547626 L8.087904,0.396136437 C8.087904,0.307848667 8.12323938,0.22555328 8.19431631,0.149250275 C8.26661169,0.0725477782 8.34946708,0.0341965298 8.44572554,0.0341965298 L9.38759631,0.0341965298 C9.476544,0.0341965298 9.561024,0.0725477782 9.63778708,0.149250275 C9.71536246,0.22555328 9.75435323,0.307848667 9.75435323,0.396136437 L9.75435323,13.0975905 Z" id="Fill-76" fill="#4582A8" mask="url(#mask-8)"></path>
                </g>
                <g id="Group-81">
                    <mask id="mask-10" fill="white">
                        <use xlink:href="#path-9"></use>
                    </mask>
                    <g id="Clip-80"></g>
                    <path d="M38.0074764,24.2879116 C36.3798149,24.687129 30.6095533,25.8709469 26.4819585,23.7543042 C28.5183123,23.0009296 29.6148713,21.6839075 29.6741021,21.0020758 C29.7503123,20.1123348 29.2247379,19.6937495 29.2247379,19.6937495 C27.7167226,21.2550452 25.1654559,21.3779725 23.6562559,21.2933859 C23.2266354,20.6661007 22.8708559,19.9396042 22.6074764,19.0984808 L20.2564097,18.3150661 C20.2141585,18.3020223 20.1738815,18.2881881 20.1328149,18.2739585 L20.1320251,18.273168 C19.442579,18.0205938 19.0737687,17.4707806 19.8658815,16.3221413 C19.8658815,16.3221413 21.4031174,14.2505587 22.0720303,9.24532134 C25.7929072,7.95122457 29.5516918,10.0702388 29.5516918,10.0702388 C28.3548354,6.79151783 25.5315021,6.03932902 22.9944508,6.11126721 C23.0730303,6.01877526 23.1587174,5.90691534 23.2558559,5.76699162 C25.6396969,2.364948 29.0695533,3.56536701 29.0695533,3.56536701 L29.0707379,3.56536701 C31.5189431,4.41004776 34.0528354,7.09033797 33.1620046,14.861638 C33.1620046,14.861638 33.0336713,16.8553534 35.1470251,15.3264694 C35.1470251,15.3264694 36.7344097,14.1754584 38.0074764,15.182593 L38.0074764,24.2879116 Z M38.0074764,32.0319384 L37.9596969,31.9572333 C37.9754918,31.9588144 37.9916815,31.961186 38.0074764,31.962767 L38.0074764,32.0319384 Z M38.0074764,40.9443677 C35.45542,41.0301402 32.187461,42.6313576 30.7702662,45.6788488 C30.7702662,45.6788488 27.2863123,52.387282 20.7440764,53.648967 C20.7440764,53.648967 18.8735687,54.0118201 20.1952046,55.6766751 L23.1721431,59.2411726 C23.0295944,62.1791754 23.3217995,69.2512521 29.0604713,71.6931977 C29.0513892,71.6931977 29.0430969,71.6943835 29.0344097,71.6943835 C25.8963636,71.6943835 23.2242662,69.9445465 21.0856405,66.4923042 L20.7235431,65.9033598 L20.0305431,65.8567185 C20.021461,65.8555327 19.4761431,65.8144252 18.6563892,65.6444614 C14.422179,64.5653886 13.7674815,60.364515 13.6912713,58.4806832 C15.1388713,58.1790962 16.0802456,57.6446983 16.0802456,57.6446983 C17.4299174,57.1355973 16.9781841,56.3861754 16.9781841,56.3861754 C15.9696815,56.530447 15.0492354,56.5699735 14.1943379,56.5466528 C9.85864564,56.2660149 7.96326103,53.2683271 7.13403026,50.6730188 C9.53090205,50.9746058 11.5214508,50.8904144 13.1676713,50.5437672 C19.0271738,49.3077744 20.5881021,44.8084758 20.9845533,42.9578463 L21.7596867,43.2234642 L26.0578662,44.6938491 L26.0547072,44.6879201 C27.5721995,45.3689612 27.6132662,44.0784219 27.6132662,44.0784219 C27.6764456,43.4088434 27.7613431,42.787092 27.8569021,42.185499 C28.2580918,40.174392 30.1029328,34.5272447 38.0074764,34.4798129 L38.0074764,40.9443677 Z M38.0074764,51.1512891 C35.3022097,49.8168754 32.7916149,50.4291405 32.1313892,52.1434036 C34.1732713,52.756064 36.3584918,53.7940292 38.0074764,54.6624258 L38.0074764,67.4559597 C32.8358405,68.4785096 29.9726251,66.9618788 28.3966918,64.9179648 C30.1246508,65.1037392 31.4087738,64.6424653 31.7692918,64.167357 C32.3086867,63.4570663 32.0867687,62.8206901 32.0867687,62.8206901 C30.114779,63.3033083 28.0409123,62.2325361 26.7741636,61.3728353 C26.4906456,60.1787405 26.4582662,59.2040177 26.4562918,58.8787148 L26.41562,58.8380025 C26.4053533,58.8557895 26.3978508,58.8731811 26.3883738,58.8901775 C26.3836354,58.8609279 26.38482,58.8308878 26.3788969,58.8020335 L23.7312815,56.1577123 C22.38082,54.7434551 24.164061,54.5584712 24.164061,54.5584712 C29.3218764,53.5639851 32.0701841,48.2749476 32.0701841,48.2749476 C32.1499482,48.1018217 32.2383995,47.9460874 32.3252713,47.7891672 C32.7031636,47.2018038 34.9302405,44.0258517 38.0074764,45.6152112 L38.0074764,51.1512891 Z M3.3029841,38.4534093 C3.23901487,35.5912974 3.60387641,32.2133649 5.03528667,29.0346458 L5.05976872,29.0441322 C6.78535846,33.1390749 11.6604456,34.0307922 12.6902713,33.8177445 C14.4474508,33.4541009 13.8914713,32.3331301 13.8914713,32.3331301 C12.5998456,29.2081671 11.9313277,26.5677986 11.6517585,24.3499681 C10.9172969,16.9917197 14.7973072,12.8117951 18.3539174,10.5607624 C17.3323841,15.6952514 15.7252559,17.8810654 15.7252559,17.8810654 C14.5552508,19.5787274 15.2245585,20.3261731 16.3076918,20.6372464 L19.1890713,21.6167125 C19.1890713,21.6167125 21.5322405,29.4326774 31.35902,29.4816903 C30.1029328,30.6694608 29.1114097,31.9327269 28.3382508,33.1730677 C24.3429379,31.1141336 21.2803123,31.6540653 21.0208815,33.9276281 C22.4791431,33.9817793 25.5263687,34.8149974 27.0505738,35.6150132 C25.7518405,38.5561782 25.5713841,40.8819159 25.5713841,40.8819159 L20.104779,39.1004577 C19.8034918,39.4475002 19.6719995,39.7890089 19.6719995,39.7890089 C18.6875841,41.7835148 17.5282405,43.2005389 16.2899226,44.196606 C14.8877328,43.5471861 12.9113995,42.2262113 12.0079328,39.705608 C12.0079328,39.705608 11.480779,39.0316817 11.0886713,39.705608 C10.796861,40.2068037 9.96249692,43.7151736 11.6869021,46.1602813 C11.63162,46.167396 11.5763379,46.1741155 11.520661,46.180835 C10.3830354,46.2891376 3.57307641,46.5954677 3.3029841,38.4534093 L3.3029841,38.4534093 Z M39.0029482,2.94045346 C38.9298969,2.87365372 38.8576354,2.80685398 38.78182,2.74321635 C38.7470713,2.71317623 38.7194303,2.68590297 38.6838918,2.65507232 L38.6831021,2.66455867 C36.7561277,1.08429024 34.257379,0.542382277 32.541661,0.368070526 C26.9743636,-0.0109883598 21.6005533,1.3032669 19.6909533,6.2974369 C8.24362,7.60141528 6.4907841,21.1597864 6.4907841,21.1597864 C2.77464564,25.2013684 -3.67005692,34.7209244 2.67987641,47.3361939 C2.76319436,53.9746652 6.28466103,56.8375677 7.97392256,57.8142669 C8.17017385,61.8293661 10.2235072,64.9416807 13.9495174,66.8500188 C16.0312815,67.913281 18.1004097,68.3211942 19.1515585,68.4690232 C21.521579,72.0469596 24.4835123,74.0141923 27.9777328,74.3410762 C27.9714149,74.3418667 27.967861,74.3430525 27.9627277,74.3438431 C27.9627277,74.3438431 28.00182,74.3462146 28.0725021,74.3501673 C28.389979,74.3778358 28.7094303,74.396018 29.0344097,74.396018 C29.2077585,74.396018 29.3775533,74.3790216 29.5481379,74.3711163 C32.4224097,74.3165698 38.4185379,73.7007473 41.3421687,69.6872291 L41.3421687,31.3797515 L41.3421687,27.2816467 L41.3421687,24.3962141 L41.3421687,13.4070638 L41.3421687,7.27334554 L41.3421687,5.93774599 C40.6195533,4.73100273 40.1990149,4.02308358 39.0029482,2.94045346 L39.0029482,2.94045346 Z" id="Fill-79" fill="#5AA3D1" mask="url(#mask-10)"></path>
                </g>
                <g id="Group-84" transform="translate(44.000000, 0.000000)">
                    <mask id="mask-12" fill="white">
                        <use xlink:href="#path-11"></use>
                    </mask>
                    <g id="Clip-83"></g>
                    <path d="M37.9117267,38.4535674 C37.6445736,46.5956258 30.9004241,46.2889004 29.7719662,46.1805979 C29.7168145,46.1742736 29.6628363,46.1671589 29.6076846,46.1604394 C31.3166041,43.7153317 30.4889379,40.2069618 30.1987071,39.7057661 C29.8130366,39.0314445 29.2889001,39.7057661 29.2889001,39.7057661 C28.3943479,42.2263694 26.4370504,43.5469489 25.0469154,44.1963689 C23.8222354,43.2003017 22.6746113,41.7836729 21.6979183,39.789167 C21.6979183,39.789167 21.5672753,39.447263 21.2684393,39.1002206 L15.8537971,40.882074 C15.8537971,40.882074 15.6750431,38.5563363 14.3889531,35.6151713 C15.8991701,34.8151555 18.9180395,33.9819374 20.3621527,33.9277862 C20.1047782,31.6538281 17.0714364,31.1138965 13.1134241,33.1732258 C12.3483414,31.932885 11.3669546,30.6696189 10.1207615,29.4818484 C19.8548356,29.4328355 22.1758994,21.6168706 22.1758994,21.6168706 L25.0308784,20.6370093 C26.1041846,20.3263312 26.7663958,19.5788856 25.608993,17.8808282 C25.608993,17.8808282 24.0162441,15.6950142 23.0043479,10.5609205 C26.5258406,12.8119532 30.3704205,16.9918778 29.6421055,24.349731 C29.3663472,26.5679567 28.7037448,29.2079299 27.4243044,32.3328929 C27.4243044,32.3328929 26.8731788,33.454259 28.6137811,33.8175073 C29.6342826,34.0309503 34.4622049,33.1388377 36.1730801,29.043895 L36.1961578,29.0348039 C37.6140642,32.2131277 37.976657,35.5910602 37.9117267,38.4535674 L37.9117267,38.4535674 Z M27.1239038,56.5464157 C26.2774626,56.5701316 25.3649176,56.5302098 24.365538,56.3859382 C24.365538,56.3859382 23.9200221,57.1357554 25.25657,57.6448564 C25.25657,57.6448564 26.1890634,58.1788591 27.6218334,58.4804461 C27.5467332,60.3646731 26.8982122,64.5655467 22.7035562,65.6446195 C21.8903624,65.8141881 21.3525358,65.8552956 21.3431483,65.8564814 L20.6562949,65.9031226 L20.2964401,66.4924624 C18.1779901,69.9447046 15.5318835,71.6945416 12.4234415,71.6945416 C12.4144451,71.6945416 12.4066222,71.6929605 12.398017,71.6929605 C18.0837238,69.2514102 18.3712165,62.1793335 18.2307949,59.2409354 L21.1800402,55.676438 C22.4888167,54.0119782 20.6363464,53.6487299 20.6363464,53.6487299 C14.1562209,52.3874401 10.7039611,45.6786116 10.7039611,45.6786116 C9.30013599,42.6311205 6.06339797,41.0302983 3.53541756,40.9441306 L3.53541756,34.479971 C11.3669546,34.5270075 13.1928269,40.1745501 13.5902318,42.1856571 C13.6856716,42.7872501 13.7689858,43.4090015 13.8319604,44.07858 C13.8319604,44.07858 13.8714662,45.3691193 15.3750337,44.6880782 L15.3711222,44.6940072 L19.6303174,43.2236223 L20.3989205,42.9580044 C20.7771592,44.7465774 22.2955903,49.2992367 28.1412761,50.5435301 C29.7719662,50.8905725 31.7441273,50.9743686 34.1164313,50.6731769 C33.2969792,53.2684852 31.4186933,56.266173 27.1239038,56.5464157 L27.1239038,56.5464157 Z M3.53541756,67.4561178 L3.53541756,54.6625839 C5.16962801,53.7941873 7.3330598,52.7562221 9.35489652,52.1431665 C8.70129057,50.4289033 6.21516284,49.8170335 3.53541756,51.1514472 L3.53541756,45.614974 C6.58323179,44.0260098 8.7896897,47.201962 9.16323469,47.7889301 C9.25046038,47.9462455 9.33690377,48.1015845 9.41669768,48.2751057 C9.41669768,48.2751057 12.1386868,53.5641432 17.249017,54.5586293 C17.249017,54.5586293 19.0142615,54.7432179 17.6777136,56.1578704 L15.0535112,58.8021916 C15.0484263,58.8310459 15.0488174,58.861086 15.044906,58.8903356 C15.0351273,58.8729439 15.0273044,58.8559476 15.0175257,58.8377654 L14.9768464,58.8788729 C14.9752819,59.2041758 14.9428167,60.1788986 14.6627557,61.3729934 C13.4079575,62.2326942 11.3536556,63.3034664 9.39987837,62.8208482 C9.39987837,62.8208482 9.18005399,63.4568291 9.71475138,64.1675151 C10.0699125,64.6426234 11.3427035,65.1038973 13.0547521,64.9177276 C11.4944684,66.9620369 8.65826444,68.4782724 3.53541756,67.4561178 L3.53541756,67.4561178 Z M3.53541756,31.9629251 C3.55106343,31.9609488 3.56631814,31.9589725 3.58235515,31.9573914 L3.53541756,32.0317012 L3.53541756,31.9629251 Z M3.53541756,15.1827511 C4.79530073,14.1752213 6.36888345,15.3266275 6.36888345,15.3266275 C8.46151771,16.8551162 8.33439507,14.8617961 8.33439507,14.8617961 C7.4531418,7.09010081 9.96234717,4.41020587 12.3882383,3.56512985 L12.3898029,3.56512985 C12.3898029,3.56512985 15.7865199,2.36471084 18.1486541,5.76714972 C18.2440939,5.90667818 18.329755,6.0185381 18.407202,6.11142531 C15.8940852,6.03909187 13.0973871,6.79128067 11.9106483,10.0700017 C11.9106483,10.0700017 15.6351462,7.95138268 19.3209205,9.24547944 C19.9823493,14.2507169 21.5062565,16.3222994 21.5062565,16.3222994 C22.2905054,17.4709387 21.9251745,18.0207519 21.2418414,18.2733261 L21.2410591,18.2737214 C21.2011621,18.2883462 21.1612652,18.3021804 21.1186302,18.3152242 L18.7909168,19.0986389 C18.5280663,19.9397623 18.1752521,20.6662589 17.7504669,21.2931487 C16.2574604,21.3781307 13.72948,21.2552033 12.2353,19.6939076 C12.2353,19.6939076 11.7146839,20.1120977 11.7913486,21.0018386 C11.848456,21.6840656 12.9354524,23.0010877 14.9525954,23.7544623 C10.8623755,25.871105 5.14811495,24.6872871 3.53541756,24.2880697 L3.53541756,15.1827511 Z M34.7551737,21.1603398 C34.7551737,21.1603398 33.0192652,7.60157339 21.6791433,6.29719974 C19.7871672,1.30302974 14.4640533,-0.0108302539 8.9492775,0.368228632 C7.24935443,0.542145118 4.77378766,1.08444834 2.86655689,2.66471678 L2.86655689,2.65523042 C2.83057141,2.68527054 2.80397344,2.71175328 2.77033483,2.74100287 C2.69406125,2.80661682 2.62052569,2.87499762 2.54659898,2.94377368 C1.3637717,4.02442748 0.947982874,4.73234663 0.231402322,5.93750883 L0.231402322,7.27350365 L0.231402322,13.4072219 L0.231402322,24.3963722 L0.231402322,27.2814096 L0.231402322,31.3799096 L0.231402322,69.6873872 C3.12784282,73.7005102 9.06779492,74.3167279 11.9145598,74.3712744 C12.0847086,74.3791797 12.2529016,74.3961761 12.4234415,74.3961761 C12.7457463,74.3961761 13.0617927,74.3775987 13.3754923,74.3503254 C13.4478544,74.3463727 13.4861868,74.3436059 13.4861868,74.3436059 C13.4799284,74.3428154 13.4764081,74.3416296 13.4721055,74.340839 C16.9317971,74.0143504 19.8653965,72.0467225 22.2126672,68.4691813 C23.2546817,68.3213523 25.3062456,67.9130438 27.3652412,66.8501769 C31.057665,64.9414435 33.090845,61.8291289 33.2852448,57.8140297 C34.9589611,56.8373305 38.4475975,53.9748233 38.5297383,47.336352 C44.8189843,34.7206872 38.4358631,25.2011312 34.7551737,21.1603398 L34.7551737,21.1603398 Z" id="Fill-82" fill="#4582A8" mask="url(#mask-12)"></path>
                </g>
            </g>
        </g>
    </g>
</svg>